<?xml version="1.0" encoding="UTF-8"?>
<svg xmlns="http://www.w3.org/2000/svg" width="1280" height="720">
  <rect width="1280" height="720" fill="#000000"/>
  <rect x="10" y="10" width="10" height="10" fill="#74b794"/>
  <rect x="10" y="20" width="10" height="10" fill="#74b794"/>
  <rect x="10" y="60" width="10" height="10" fill="#74b794"/>
  <rect x="20" y="20" width="10" height="10" fill="#74b794"/>
  <rect x="20" y="50" width="10" height="10" fill="#74b794"/>
  <rect x="20" y="60" width="10" height="10" fill="#74b794"/>
  <rect x="50" y="240" width="10" height="10" fill="#74b794"/>
  <rect x="60" y="230" width="10" height="10" fill="#74b794"/>
  <rect x="60" y="240" width="10" height="10" fill="#74b794"/>
  <rect x="110" y="420" width="10" height="10" fill="#74b794"/>
  <rect x="120" y="420" width="10" height="10" fill="#74b794"/>
  <rect x="120" y="430" width="10" height="10" fill="#74b794"/>
  <rect x="150" y="700" width="10" height="10" fill="#74b794"/>
  <rect x="150" y="710" width="10" height="10" fill="#74b794"/>
  <rect x="160" y="700" width="10" height="10" fill="#74b794"/>
  <rect x="170" y="430" width="10" height="10" fill="#74b794"/>
  <rect x="180" y="420" width="10" height="10" fill="#74b794"/>
  <rect x="180" y="430" width="10" height="10" fill="#74b794"/>
  <rect x="230" y="390" width="10" height="10" fill="#74b794"/>
  <rect x="240" y="390" width="10" height="10" fill="#74b794"/>
  <rect x="240" y="400" width="10" height="10" fill="#74b794"/>
  <rect x="260" y="370" width="10" height="10" fill="#74b794"/>
  <rect x="270" y="370" width="10" height="10" fill="#74b794"/>
  <rect x="270" y="380" width="10" height="10" fill="#74b794"/>
  <rect x="300" y="0" width="10" height="10" fill="#74b794"/>
  <rect x="300" y="10" width="10" height="10" fill="#74b794"/>
  <rect x="310" y="10" width="10" height="10" fill="#74b794"/>
  <rect x="320" y="80" width="10" height="10" fill="#74b794"/>
  <rect x="320" y="90" width="10" height="10" fill="#74b794"/>
  <rect x="330" y="80" width="10" height="10" fill="#74b794"/>
  <rect x="380" y="340" width="10" height="10" fill="#74b794"/>
  <rect x="380" y="350" width="10" height="10" fill="#74b794"/>
  <rect x="390" y="60" width="10" height="10" fill="#74b794"/>
  <rect x="390" y="350" width="10" height="10" fill="#74b794"/>
  <rect x="400" y="50" width="10" height="10" fill="#74b794"/>
  <rect x="400" y="60" width="10" height="10" fill="#74b794"/>
  <rect x="410" y="200" width="10" height="10" fill="#74b794"/>
  <rect x="410" y="210" width="10" height="10" fill="#74b794"/>
  <rect x="420" y="200" width="10" height="10" fill="#74b794"/>
  <rect x="450" y="350" width="10" height="10" fill="#74b794"/>
  <rect x="450" y="360" width="10" height="10" fill="#74b794"/>
  <rect x="460" y="360" width="10" height="10" fill="#74b794"/>
  <rect x="470" y="280" width="10" height="10" fill="#74b794"/>
  <rect x="480" y="270" width="10" height="10" fill="#74b794"/>
  <rect x="480" y="280" width="10" height="10" fill="#74b794"/>
  <rect x="490" y="10" width="10" height="10" fill="#74b794"/>
  <rect x="500" y="0" width="10" height="10" fill="#74b794"/>
  <rect x="500" y="20" width="10" height="10" fill="#74b794"/>
  <rect x="510" y="0" width="10" height="10" fill="#74b794"/>
  <rect x="510" y="20" width="10" height="10" fill="#74b794"/>
  <rect x="510" y="630" width="10" height="10" fill="#74b794"/>
  <rect x="520" y="10" width="10" height="10" fill="#74b794"/>
  <rect x="520" y="170" width="10" height="10" fill="#74b794"/>
  <rect x="520" y="620" width="10" height="10" fill="#74b794"/>
  <rect x="520" y="630" width="10" height="10" fill="#74b794"/>
  <rect x="520" y="660" width="10" height="10" fill="#74b794"/>
  <rect x="520" y="670" width="10" height="10" fill="#74b794"/>
  <rect x="530" y="170" width="10" height="10" fill="#74b794"/>
  <rect x="530" y="180" width="10" height="10" fill="#74b794"/>
  <rect x="530" y="660" width="10" height="10" fill="#74b794"/>
  <rect x="560" y="610" width="10" height="10" fill="#74b794"/>
  <rect x="570" y="610" width="10" height="10" fill="#74b794"/>
  <rect x="570" y="620" width="10" height="10" fill="#74b794"/>
  <rect x="570" y="660" width="10" height="10" fill="#74b794"/>
  <rect x="570" y="670" width="10" height="10" fill="#74b794"/>
  <rect x="570" y="700" width="10" height="10" fill="#74b794"/>
  <rect x="570" y="710" width="10" height="10" fill="#74b794"/>
  <rect x="580" y="670" width="10" height="10" fill="#74b794"/>
  <rect x="580" y="700" width="10" height="10" fill="#74b794"/>
  <rect x="690" y="540" width="10" height="10" fill="#74b794"/>
  <rect x="690" y="550" width="10" height="10" fill="#74b794"/>
  <rect x="700" y="550" width="10" height="10" fill="#74b794"/>
  <rect x="710" y="80" width="10" height="10" fill="#74b794"/>
  <rect x="710" y="90" width="10" height="10" fill="#74b794"/>
  <rect x="710" y="280" width="10" height="10" fill="#74b794"/>
  <rect x="720" y="90" width="10" height="10" fill="#74b794"/>
  <rect x="720" y="280" width="10" height="10" fill="#74b794"/>
  <rect x="720" y="290" width="10" height="10" fill="#74b794"/>
  <rect x="750" y="30" width="10" height="10" fill="#74b794"/>
  <rect x="750" y="620" width="10" height="10" fill="#74b794"/>
  <rect x="750" y="630" width="10" height="10" fill="#74b794"/>
  <rect x="760" y="20" width="10" height="10" fill="#74b794"/>
  <rect x="760" y="30" width="10" height="10" fill="#74b794"/>
  <rect x="760" y="620" width="10" height="10" fill="#74b794"/>
  <rect x="840" y="410" width="10" height="10" fill="#74b794"/>
  <rect x="850" y="400" width="10" height="10" fill="#74b794"/>
  <rect x="850" y="410" width="10" height="10" fill="#74b794"/>
  <rect x="880" y="670" width="10" height="10" fill="#74b794"/>
  <rect x="880" y="680" width="10" height="10" fill="#74b794"/>
  <rect x="890" y="680" width="10" height="10" fill="#74b794"/>
  <rect x="930" y="20" width="10" height="10" fill="#74b794"/>
  <rect x="940" y="20" width="10" height="10" fill="#74b794"/>
  <rect x="940" y="30" width="10" height="10" fill="#74b794"/>
  <rect x="950" y="390" width="10" height="10" fill="#74b794"/>
  <rect x="950" y="400" width="10" height="10" fill="#74b794"/>
  <rect x="960" y="400" width="10" height="10" fill="#74b794"/>
  <rect x="1080" y="330" width="10" height="10" fill="#74b794"/>
  <rect x="1090" y="20" width="10" height="10" fill="#74b794"/>
  <rect x="1090" y="30" width="10" height="10" fill="#74b794"/>
  <rect x="1090" y="320" width="10" height="10" fill="#74b794"/>
  <rect x="1090" y="330" width="10" height="10" fill="#74b794"/>
  <rect x="1100" y="30" width="10" height="10" fill="#74b794"/>
  <rect x="1140" y="210" width="10" height="10" fill="#74b794"/>
  <rect x="1140" y="220" width="10" height="10" fill="#74b794"/>
  <rect x="1150" y="140" width="10" height="10" fill="#74b794"/>
  <rect x="1150" y="220" width="10" height="10" fill="#74b794"/>
  <rect x="1160" y="10" width="10" height="10" fill="#74b794"/>
  <rect x="1160" y="130" width="10" height="10" fill="#74b794"/>
  <rect x="1160" y="140" width="10" height="10" fill="#74b794"/>
  <rect x="1170" y="10" width="10" height="10" fill="#74b794"/>
  <rect x="1170" y="20" width="10" height="10" fill="#74b794"/>
  <rect x="1170" y="470" width="10" height="10" fill="#74b794"/>
  <rect x="1170" y="480" width="10" height="10" fill="#74b794"/>
  <rect x="1180" y="470" width="10" height="10" fill="#74b794"/>
  <rect x="1210" y="110" width="10" height="10" fill="#74b794"/>
  <rect x="1220" y="110" width="10" height="10" fill="#74b794"/>
  <rect x="1220" y="120" width="10" height="10" fill="#74b794"/>
</svg>